<svg xmlns="http://www.w3.org/2000/svg" xmlns:xlink="http://www.w3.org/1999/xlink" width="500" zoomAndPan="magnify" viewBox="0 0 375 374.999991" height="500" preserveAspectRatio="xMidYMid meet" version="1.0"><defs><g/><clipPath id="07b4e3a96a"><path d="M 46.117188 68 L 328.867188 68 L 328.867188 212 L 46.117188 212 Z M 46.117188 68 " clip-rule="nonzero"/></clipPath><clipPath id="1e524fbf15"><path d="M 78 29.570312 L 296 29.570312 L 296 250.820312 L 78 250.820312 Z M 78 29.570312 " clip-rule="nonzero"/></clipPath></defs><path fill="#ffb000" d="M 171.375 182.964844 L 171.375 161.6875 C 171.375 161.03125 171.007812 160.375 170.433594 160.050781 L 151.980469 149.410156 L 151.980469 130.832031 L 170.433594 120.191406 C 171.007812 119.863281 171.375 119.210938 171.375 118.554688 L 171.375 97.277344 L 184.183594 89.871094 L 184.183594 190.371094 Z M 190.730469 89.871094 L 190.730469 190.371094 L 203.539062 182.964844 L 203.539062 161.6875 C 203.539062 161.03125 203.90625 160.375 204.480469 160.050781 L 222.9375 149.410156 L 222.9375 130.832031 L 204.480469 120.191406 C 203.90625 119.863281 203.539062 119.25 203.539062 118.554688 L 203.539062 97.277344 Z M 190.730469 89.871094 " fill-opacity="1" fill-rule="nonzero"/><g clip-path="url(#07b4e3a96a)"><path fill="#ffffff" d="M 88.511719 77.265625 L 84.828125 75.140625 L 84.828125 70.925781 L 88.511719 68.796875 L 92.195312 70.925781 L 92.195312 75.140625 Z M 46.117188 137.992188 L 46.117188 142.25 L 49.800781 144.375 L 53.441406 142.25 L 53.441406 137.992188 L 49.800781 135.863281 Z M 290.085938 75.140625 L 290.085938 70.925781 L 286.402344 68.796875 L 282.722656 70.925781 L 282.722656 75.140625 L 286.402344 77.265625 Z M 282.722656 205.101562 L 282.722656 209.316406 L 286.402344 211.445312 L 290.085938 209.316406 L 290.085938 205.101562 L 286.402344 202.976562 Z M 65.472656 171.546875 L 65.472656 175.804688 L 69.15625 177.890625 L 72.796875 175.804688 L 72.796875 171.546875 L 69.15625 169.421875 Z M 325.113281 135.863281 L 321.472656 137.992188 L 321.472656 142.25 L 325.113281 144.375 L 328.796875 142.25 L 328.796875 137.992188 Z M 302.117188 104.480469 L 302.117188 108.695312 L 305.757812 110.820312 L 309.441406 108.695312 L 309.441406 104.480469 L 305.757812 102.351562 Z M 302.117188 171.546875 L 302.117188 175.804688 L 305.757812 177.890625 L 309.441406 175.804688 L 309.441406 171.546875 L 305.757812 169.421875 Z M 84.828125 205.101562 L 84.828125 209.316406 L 88.511719 211.445312 L 92.195312 209.316406 L 92.195312 205.101562 L 88.511719 202.976562 Z M 65.472656 104.480469 L 65.472656 108.695312 L 69.15625 110.820312 L 72.796875 108.695312 L 72.796875 104.480469 L 69.15625 102.351562 Z M 65.472656 104.480469 " fill-opacity="1" fill-rule="nonzero"/></g><path fill="#233169" d="M 148.746094 125.183594 C 147.847656 124.652344 145.71875 123.425781 140.605469 120.480469 C 138.476562 119.25 135.898438 117.738281 132.625 115.855469 L 132.625 97.277344 L 148.746094 87.988281 L 164.828125 97.277344 L 164.828125 115.855469 Z M 113.269531 130.832031 L 113.269531 149.410156 L 129.351562 158.699219 L 145.472656 149.410156 L 145.472656 130.832031 L 129.351562 121.542969 Z M 151.980469 82.339844 L 168.101562 91.628906 C 168.390625 91.464844 168.46875 91.425781 168.675781 91.300781 C 169.289062 90.933594 171.089844 89.910156 184.183594 82.339844 L 184.183594 63.722656 L 168.101562 54.433594 L 151.980469 63.722656 Z M 242.292969 115.855469 L 242.292969 97.277344 L 226.167969 87.988281 L 210.085938 97.277344 L 210.085938 115.855469 L 226.167969 125.183594 C 227.394531 124.488281 230.832031 122.484375 242.292969 115.855469 Z M 190.730469 82.339844 C 203.457031 89.707031 205.09375 90.648438 205.914062 91.097656 C 206.199219 91.261719 206.363281 91.382812 206.8125 91.628906 L 222.9375 82.339844 L 222.9375 63.722656 L 206.8125 54.433594 L 190.730469 63.722656 Z M 226.167969 192.253906 L 242.292969 182.964844 L 242.292969 164.386719 C 237.832031 161.769531 234.515625 159.84375 232.101562 158.414062 C 228.171875 156.121094 226.660156 155.261719 226.128906 154.976562 C 225.921875 155.097656 225.554688 155.300781 225.023438 155.628906 C 223.140625 156.777344 219.046875 159.191406 210.085938 164.386719 C 210.085938 167.824219 210.046875 170.6875 210.046875 173.0625 L 210.046875 179.160156 C 210.046875 181.207031 210.046875 182.351562 210.085938 182.964844 Z M 261.648438 149.410156 L 261.648438 130.832031 L 245.566406 121.542969 L 229.441406 130.832031 L 229.441406 149.410156 L 245.566406 158.699219 Z M 164.828125 182.964844 C 164.871094 182.308594 164.871094 181.164062 164.871094 179.078125 L 164.871094 172.855469 C 164.871094 170.523438 164.828125 167.742188 164.828125 164.386719 C 161.105469 162.21875 158.160156 160.5 155.867188 159.191406 C 151.324219 156.53125 149.402344 155.425781 148.789062 155.015625 L 132.625 164.386719 L 132.625 182.964844 L 148.746094 192.253906 C 151.980469 190.414062 162.578125 184.273438 164.828125 182.964844 Z M 222.9375 197.902344 L 206.8125 188.613281 C 206.242188 188.9375 206.078125 189.019531 205.871094 189.144531 C 205.300781 189.511719 204.195312 190.125 190.730469 197.902344 L 190.730469 216.519531 C 191.386719 216.886719 192.816406 217.707031 195.929688 219.507812 C 198.34375 220.898438 201.820312 222.902344 206.8125 225.808594 L 222.9375 216.519531 Z M 184.183594 197.902344 C 171.375 190.492188 169.820312 189.59375 168.960938 189.101562 C 168.714844 188.980469 168.511719 188.855469 168.101562 188.613281 L 151.980469 197.902344 L 151.980469 216.519531 L 168.101562 225.808594 C 171.210938 224.007812 173.75 222.535156 175.835938 221.347656 C 181.113281 218.277344 183.285156 217.050781 184.183594 216.519531 Z M 184.183594 197.902344 " fill-opacity="1" fill-rule="nonzero"/><g clip-path="url(#1e524fbf15)"><path fill="#008bfa" d="M 108.929688 116.304688 L 100.542969 111.433594 L 100.542969 101.738281 L 108.929688 96.867188 L 117.359375 101.738281 L 117.359375 111.433594 Z M 157.011719 44.285156 L 157.011719 34.710938 L 148.746094 29.921875 L 140.441406 34.710938 L 140.441406 44.285156 L 148.746094 49.074219 Z M 135.285156 77.0625 L 135.285156 69 L 128.285156 64.992188 L 121.328125 69 L 121.328125 77.0625 L 128.285156 81.113281 Z M 196.625 49.316406 L 196.625 38.761719 L 187.457031 33.441406 L 178.292969 38.761719 L 178.292969 49.316406 L 187.457031 54.636719 Z M 253.585938 77.0625 L 253.585938 69 L 246.628906 64.992188 L 239.632812 69 L 239.632812 77.0625 L 246.628906 81.113281 Z M 234.476562 44.285156 L 234.476562 34.710938 L 226.167969 29.921875 L 217.902344 34.710938 L 217.902344 44.285156 L 226.167969 49.074219 Z M 257.554688 168.804688 L 257.554688 178.503906 L 265.984375 183.375 L 274.414062 178.503906 L 274.414062 168.804688 L 265.984375 163.9375 Z M 235.988281 201.09375 L 235.988281 213.328125 L 246.628906 219.464844 L 257.226562 213.328125 L 257.226562 201.09375 L 246.628906 194.953125 Z M 274.742188 133.984375 L 274.742188 146.257812 L 285.339844 152.355469 L 295.9375 146.257812 L 295.9375 133.984375 L 285.339844 127.886719 Z M 217.902344 235.957031 L 217.902344 245.53125 L 226.167969 250.320312 L 234.476562 245.53125 L 234.476562 235.957031 L 226.167969 231.167969 Z M 257.554688 101.738281 L 257.554688 111.433594 L 265.984375 116.304688 L 274.414062 111.433594 L 274.414062 101.738281 L 265.984375 96.867188 Z M 78.976562 133.984375 L 78.976562 146.257812 L 89.574219 152.355469 L 100.175781 146.257812 L 100.175781 133.984375 L 89.574219 127.886719 Z M 100.542969 168.804688 L 100.542969 178.503906 L 108.929688 183.375 L 117.359375 178.503906 L 117.359375 168.804688 L 108.929688 163.9375 Z M 117.6875 201.09375 L 117.6875 213.328125 L 128.285156 219.464844 L 138.925781 213.328125 L 138.925781 201.09375 L 128.285156 194.953125 Z M 188.601562 225.5625 C 188.523438 225.605469 188.480469 225.644531 188.398438 225.6875 C 187.824219 226.011719 187.089844 226.011719 186.515625 225.6875 C 186.476562 225.644531 186.394531 225.605469 186.351562 225.5625 C 185.863281 225.847656 184.878906 226.421875 182.957031 227.527344 C 181.523438 228.386719 179.683594 229.492188 177.226562 230.882812 L 177.226562 241.480469 L 186.351562 246.800781 C 186.640625 246.636719 187.046875 246.515625 187.457031 246.515625 C 187.867188 246.515625 188.277344 246.636719 188.5625 246.800781 L 197.6875 241.480469 L 197.6875 230.882812 C 195.273438 229.492188 193.390625 228.386719 192 227.566406 C 189.953125 226.382812 189.011719 225.808594 188.601562 225.5625 Z M 140.441406 235.957031 L 140.441406 245.53125 L 148.746094 250.320312 L 157.011719 245.53125 L 157.011719 235.957031 L 148.746094 231.167969 Z M 140.441406 235.957031 " fill-opacity="1" fill-rule="nonzero"/></g><g fill="#000000" fill-opacity="1"><g transform="translate(4.207069, 304.904578)"><g><path d="M 3.53125 0 L 3.53125 -6.171875 L 30.0625 -6.171875 L 30.0625 -12.78125 L 9.6875 -12.78125 L 3.53125 -18.9375 L 3.53125 -25.546875 L 9.640625 -31.65625 L 9.640625 -31.71875 L 36.234375 -31.71875 L 36.234375 -25.546875 L 9.6875 -25.546875 L 9.6875 -18.9375 L 30.0625 -18.9375 L 36.234375 -12.78125 L 36.234375 -6.171875 L 30.125 -0.0625 L 30.125 0 Z M 3.53125 0 "/></g></g></g><g fill="#000000" fill-opacity="1"><g transform="translate(43.952727, 304.904578)"><g><path d="M 3.53125 0 L 3.53125 -31.71875 L 9.6875 -31.71875 L 9.6875 -18.9375 L 31.171875 -18.9375 L 31.171875 -31.71875 L 37.328125 -31.71875 L 37.328125 0 L 31.171875 0 L 31.171875 -12.78125 L 9.6875 -12.78125 L 9.6875 0 Z M 3.53125 0 "/></g></g></g><g fill="#000000" fill-opacity="1"><g transform="translate(84.799364, 304.904578)"><g><path d="M 3.53125 0 L 3.53125 -25.546875 L 9.6875 -31.71875 L 31.171875 -31.71875 L 37.328125 -25.546875 L 37.328125 0 L 31.171875 0 L 31.171875 -12.78125 L 9.6875 -12.78125 L 9.6875 0 Z M 9.6875 -18.9375 L 31.171875 -18.9375 L 31.171875 -25.546875 L 9.6875 -25.546875 Z M 9.6875 -18.9375 "/></g></g></g><g fill="#000000" fill-opacity="1"><g transform="translate(125.646001, 304.904578)"><g><path d="M 3.53125 0 L 3.53125 -25.546875 L 9.6875 -31.71875 L 33.921875 -31.71875 L 33.921875 -25.546875 L 9.6875 -25.546875 L 9.6875 0 Z M 3.53125 0 "/></g></g></g><g fill="#000000" fill-opacity="1"><g transform="translate(163.079581, 304.904578)"><g><path d="M 9.6875 0 L 3.53125 -6.171875 L 3.53125 -25.546875 L 9.6875 -31.71875 L 37.21875 -31.71875 L 37.21875 -25.546875 L 9.6875 -25.546875 L 9.6875 -18.9375 L 30.0625 -18.9375 L 30.0625 -12.78125 L 9.6875 -12.78125 L 9.6875 -6.171875 L 37.21875 -6.171875 L 37.21875 0 Z M 9.6875 0 "/></g></g></g><g fill="#000000" fill-opacity="1"><g transform="translate(203.81613, 304.904578)"><g><path d="M 9.640625 12.328125 L 9.6875 6.171875 L 30.0625 6.171875 L 30.0625 0 L 9.6875 0 L 3.53125 -6.171875 L 3.53125 -25.546875 L 9.6875 -31.71875 L 30.0625 -31.71875 L 36.234375 -25.546875 L 36.234375 6.171875 L 30.0625 12.328125 Z M 9.6875 -6.171875 L 30.0625 -6.171875 L 30.0625 -25.546875 L 9.6875 -25.546875 Z M 9.6875 -6.171875 "/></g></g></g><g fill="#000000" fill-opacity="1"><g transform="translate(243.561788, 304.904578)"><g><path d="M 3.53125 0 L 3.53125 -25.546875 L 9.6875 -31.71875 L 31.171875 -31.71875 L 37.328125 -25.546875 L 37.328125 0 L 31.171875 0 L 31.171875 -12.78125 L 9.6875 -12.78125 L 9.6875 0 Z M 9.6875 -18.9375 L 31.171875 -18.9375 L 31.171875 -25.546875 L 9.6875 -25.546875 Z M 9.6875 -18.9375 "/></g></g></g><g fill="#000000" fill-opacity="1"><g transform="translate(284.408441, 304.904578)"><g><path d="M 3.53125 0 L 3.53125 -25.546875 L 9.6875 -31.71875 L 35.953125 -31.71875 L 42.125 -25.546875 L 42.125 0 L 35.953125 0 L 35.953125 -25.546875 L 25.9375 -25.546875 L 25.9375 -8.484375 L 19.765625 -8.484375 L 19.765625 -25.546875 L 9.6875 -25.546875 L 9.6875 0 Z M 3.53125 0 "/></g></g></g><g fill="#000000" fill-opacity="1"><g transform="translate(330.044398, 304.904578)"><g><path d="M 9.6875 0 L 3.53125 -6.171875 L 3.53125 -25.546875 L 9.6875 -31.71875 L 37.21875 -31.71875 L 37.21875 -25.546875 L 9.6875 -25.546875 L 9.6875 -18.9375 L 30.0625 -18.9375 L 30.0625 -12.78125 L 9.6875 -12.78125 L 9.6875 -6.171875 L 37.21875 -6.171875 L 37.21875 0 Z M 9.6875 0 "/></g></g></g><g fill="#ffbd59" fill-opacity="1"><g transform="translate(26.338386, 339.914112)"><g><path d="M 1.671875 -14.0625 L 4.921875 -14.0625 L 4.921875 0 L 1.671875 0 Z M 1.671875 -14.0625 "/></g></g></g><g fill="#ffbd59" fill-opacity="1"><g transform="translate(37.066089, 339.914112)"><g><path d="M 14.5625 -14.0625 L 14.5625 0 L 11.890625 0 L 4.875 -8.546875 L 4.875 0 L 1.671875 0 L 1.671875 -14.0625 L 4.359375 -14.0625 L 11.359375 -5.53125 L 11.359375 -14.0625 Z M 14.5625 -14.0625 "/></g></g></g><g fill="#ffbd59" fill-opacity="1"><g transform="translate(57.432577, 339.914112)"><g><path d="M 1.671875 -14.0625 L 8.0625 -14.0625 C 9.582031 -14.0625 10.925781 -13.769531 12.09375 -13.1875 C 13.269531 -12.601562 14.179688 -11.78125 14.828125 -10.71875 C 15.484375 -9.664062 15.8125 -8.4375 15.8125 -7.03125 C 15.8125 -5.625 15.484375 -4.390625 14.828125 -3.328125 C 14.179688 -2.273438 13.269531 -1.457031 12.09375 -0.875 C 10.925781 -0.289062 9.582031 0 8.0625 0 L 1.671875 0 Z M 7.890625 -2.671875 C 9.296875 -2.671875 10.414062 -3.0625 11.25 -3.84375 C 12.09375 -4.625 12.515625 -5.6875 12.515625 -7.03125 C 12.515625 -8.375 12.09375 -9.4375 11.25 -10.21875 C 10.414062 -11 9.296875 -11.390625 7.890625 -11.390625 L 4.921875 -11.390625 L 4.921875 -2.671875 Z M 7.890625 -2.671875 "/></g></g></g><g fill="#ffbd59" fill-opacity="1"><g transform="translate(78.160522, 339.914112)"><g><path d="M 12.5625 -2.609375 L 12.5625 0 L 1.671875 0 L 1.671875 -14.0625 L 12.296875 -14.0625 L 12.296875 -11.453125 L 4.90625 -11.453125 L 4.90625 -8.40625 L 11.4375 -8.40625 L 11.4375 -5.875 L 4.90625 -5.875 L 4.90625 -2.609375 Z M 12.5625 -2.609375 "/></g></g></g><g fill="#ffbd59" fill-opacity="1"><g transform="translate(95.775951, 339.914112)"><g><path d="M 7.75 -14.0625 C 9 -14.0625 10.082031 -13.851562 11 -13.4375 C 11.914062 -13.019531 12.617188 -12.429688 13.109375 -11.671875 C 13.609375 -10.910156 13.859375 -10.007812 13.859375 -8.96875 C 13.859375 -7.9375 13.609375 -7.035156 13.109375 -6.265625 C 12.617188 -5.492188 11.914062 -4.898438 11 -4.484375 C 10.082031 -4.078125 9 -3.875 7.75 -3.875 L 4.921875 -3.875 L 4.921875 0 L 1.671875 0 L 1.671875 -14.0625 Z M 7.578125 -6.53125 C 8.554688 -6.53125 9.296875 -6.738281 9.796875 -7.15625 C 10.304688 -7.582031 10.5625 -8.1875 10.5625 -8.96875 C 10.5625 -9.75 10.304688 -10.347656 9.796875 -10.765625 C 9.296875 -11.191406 8.554688 -11.40625 7.578125 -11.40625 L 4.921875 -11.40625 L 4.921875 -6.53125 Z M 7.578125 -6.53125 "/></g></g></g><g fill="#ffbd59" fill-opacity="1"><g transform="translate(114.616297, 339.914112)"><g><path d="M 12.5625 -2.609375 L 12.5625 0 L 1.671875 0 L 1.671875 -14.0625 L 12.296875 -14.0625 L 12.296875 -11.453125 L 4.90625 -11.453125 L 4.90625 -8.40625 L 11.4375 -8.40625 L 11.4375 -5.875 L 4.90625 -5.875 L 4.90625 -2.609375 Z M 12.5625 -2.609375 "/></g></g></g><g fill="#ffbd59" fill-opacity="1"><g transform="translate(132.231732, 339.914112)"><g><path d="M 14.5625 -14.0625 L 14.5625 0 L 11.890625 0 L 4.875 -8.546875 L 4.875 0 L 1.671875 0 L 1.671875 -14.0625 L 4.359375 -14.0625 L 11.359375 -5.53125 L 11.359375 -14.0625 Z M 14.5625 -14.0625 "/></g></g></g><g fill="#ffbd59" fill-opacity="1"><g transform="translate(152.598225, 339.914112)"><g><path d="M 1.671875 -14.0625 L 8.0625 -14.0625 C 9.582031 -14.0625 10.925781 -13.769531 12.09375 -13.1875 C 13.269531 -12.601562 14.179688 -11.78125 14.828125 -10.71875 C 15.484375 -9.664062 15.8125 -8.4375 15.8125 -7.03125 C 15.8125 -5.625 15.484375 -4.390625 14.828125 -3.328125 C 14.179688 -2.273438 13.269531 -1.457031 12.09375 -0.875 C 10.925781 -0.289062 9.582031 0 8.0625 0 L 1.671875 0 Z M 7.890625 -2.671875 C 9.296875 -2.671875 10.414062 -3.0625 11.25 -3.84375 C 12.09375 -4.625 12.515625 -5.6875 12.515625 -7.03125 C 12.515625 -8.375 12.09375 -9.4375 11.25 -10.21875 C 10.414062 -11 9.296875 -11.390625 7.890625 -11.390625 L 4.921875 -11.390625 L 4.921875 -2.671875 Z M 7.890625 -2.671875 "/></g></g></g><g fill="#ffbd59" fill-opacity="1"><g transform="translate(173.326173, 339.914112)"><g><path d="M 10.9375 -3.015625 L 4.40625 -3.015625 L 3.15625 0 L -0.1875 0 L 6.09375 -14.0625 L 9.296875 -14.0625 L 15.59375 0 L 12.171875 0 Z M 9.90625 -5.484375 L 7.671875 -10.875 L 5.453125 -5.484375 Z M 9.90625 -5.484375 "/></g></g></g><g fill="#ffbd59" fill-opacity="1"><g transform="translate(192.849272, 339.914112)"><g><path d="M 14.5625 -14.0625 L 14.5625 0 L 11.890625 0 L 4.875 -8.546875 L 4.875 0 L 1.671875 0 L 1.671875 -14.0625 L 4.359375 -14.0625 L 11.359375 -5.53125 L 11.359375 -14.0625 Z M 14.5625 -14.0625 "/></g></g></g><g fill="#ffbd59" fill-opacity="1"><g transform="translate(213.215765, 339.914112)"><g><path d="M 4.578125 -11.40625 L 0.078125 -11.40625 L 0.078125 -14.0625 L 12.34375 -14.0625 L 12.34375 -11.40625 L 7.84375 -11.40625 L 7.84375 0 L 4.578125 0 Z M 4.578125 -11.40625 "/></g></g></g><g fill="#ffbd59" fill-opacity="1"><g transform="translate(229.766894, 339.914112)"><g/></g></g><g fill="#ffbd59" fill-opacity="1"><g transform="translate(239.590965, 339.914112)"><g><path d="M 11.171875 -7.25 L 14.140625 -7.25 L 14.140625 -1.546875 C 13.378906 -0.972656 12.492188 -0.53125 11.484375 -0.21875 C 10.484375 0.0820312 9.472656 0.234375 8.453125 0.234375 C 6.992188 0.234375 5.679688 -0.0703125 4.515625 -0.6875 C 3.347656 -1.3125 2.429688 -2.175781 1.765625 -3.28125 C 1.109375 -4.382812 0.78125 -5.632812 0.78125 -7.03125 C 0.78125 -8.425781 1.109375 -9.675781 1.765625 -10.78125 C 2.429688 -11.882812 3.351562 -12.75 4.53125 -13.375 C 5.71875 -14 7.046875 -14.3125 8.515625 -14.3125 C 9.753906 -14.3125 10.875 -14.101562 11.875 -13.6875 C 12.875 -13.269531 13.71875 -12.664062 14.40625 -11.875 L 12.3125 -9.953125 C 11.3125 -11.003906 10.101562 -11.53125 8.6875 -11.53125 C 7.78125 -11.53125 6.976562 -11.34375 6.28125 -10.96875 C 5.59375 -10.59375 5.050781 -10.0625 4.65625 -9.375 C 4.269531 -8.695312 4.078125 -7.914062 4.078125 -7.03125 C 4.078125 -6.164062 4.269531 -5.390625 4.65625 -4.703125 C 5.050781 -4.015625 5.59375 -3.476562 6.28125 -3.09375 C 6.96875 -2.71875 7.753906 -2.53125 8.640625 -2.53125 C 9.578125 -2.53125 10.421875 -2.734375 11.171875 -3.140625 Z M 11.171875 -7.25 "/></g></g></g><g fill="#ffbd59" fill-opacity="1"><g transform="translate(259.214469, 339.914112)"><g><path d="M 10.9375 -3.015625 L 4.40625 -3.015625 L 3.15625 0 L -0.1875 0 L 6.09375 -14.0625 L 9.296875 -14.0625 L 15.59375 0 L 12.171875 0 Z M 9.90625 -5.484375 L 7.671875 -10.875 L 5.453125 -5.484375 Z M 9.90625 -5.484375 "/></g></g></g><g fill="#ffbd59" fill-opacity="1"><g transform="translate(278.737557, 339.914112)"><g><path d="M 14.46875 0 L 14.453125 -8.4375 L 10.3125 -1.484375 L 8.84375 -1.484375 L 4.71875 -8.265625 L 4.71875 0 L 1.671875 0 L 1.671875 -14.0625 L 4.359375 -14.0625 L 9.625 -5.328125 L 14.8125 -14.0625 L 17.484375 -14.0625 L 17.515625 0 Z M 14.46875 0 "/></g></g></g><g fill="#ffbd59" fill-opacity="1"><g transform="translate(302.055928, 339.914112)"><g><path d="M 1.671875 -14.0625 L 4.921875 -14.0625 L 4.921875 0 L 1.671875 0 Z M 1.671875 -14.0625 "/></g></g></g><g fill="#ffbd59" fill-opacity="1"><g transform="translate(312.783624, 339.914112)"><g><path d="M 14.5625 -14.0625 L 14.5625 0 L 11.890625 0 L 4.875 -8.546875 L 4.875 0 L 1.671875 0 L 1.671875 -14.0625 L 4.359375 -14.0625 L 11.359375 -5.53125 L 11.359375 -14.0625 Z M 14.5625 -14.0625 "/></g></g></g><g fill="#ffbd59" fill-opacity="1"><g transform="translate(333.150105, 339.914112)"><g><path d="M 11.171875 -7.25 L 14.140625 -7.25 L 14.140625 -1.546875 C 13.378906 -0.972656 12.492188 -0.53125 11.484375 -0.21875 C 10.484375 0.0820312 9.472656 0.234375 8.453125 0.234375 C 6.992188 0.234375 5.679688 -0.0703125 4.515625 -0.6875 C 3.347656 -1.3125 2.429688 -2.175781 1.765625 -3.28125 C 1.109375 -4.382812 0.78125 -5.632812 0.78125 -7.03125 C 0.78125 -8.425781 1.109375 -9.675781 1.765625 -10.78125 C 2.429688 -11.882812 3.351562 -12.75 4.53125 -13.375 C 5.71875 -14 7.046875 -14.3125 8.515625 -14.3125 C 9.753906 -14.3125 10.875 -14.101562 11.875 -13.6875 C 12.875 -13.269531 13.71875 -12.664062 14.40625 -11.875 L 12.3125 -9.953125 C 11.3125 -11.003906 10.101562 -11.53125 8.6875 -11.53125 C 7.78125 -11.53125 6.976562 -11.34375 6.28125 -10.96875 C 5.59375 -10.59375 5.050781 -10.0625 4.65625 -9.375 C 4.269531 -8.695312 4.078125 -7.914062 4.078125 -7.03125 C 4.078125 -6.164062 4.269531 -5.390625 4.65625 -4.703125 C 5.050781 -4.015625 5.59375 -3.476562 6.28125 -3.09375 C 6.96875 -2.71875 7.753906 -2.53125 8.640625 -2.53125 C 9.578125 -2.53125 10.421875 -2.734375 11.171875 -3.140625 Z M 11.171875 -7.25 "/></g></g></g></svg>