<svg width="40" height="40" viewBox="0 0 40 40" fill="none" xmlns="http://www.w3.org/2000/svg">
<path d="M34.3814 26.6648C34.2517 26.5086 34.1244 26.3523 33.9994 26.2016C32.2806 24.1227 31.2408 22.868 31.2408 16.9828C31.2408 13.9359 30.5119 11.4359 29.0752 9.56094C28.0158 8.17578 26.5837 7.125 24.6962 6.34844C24.672 6.33493 24.6503 6.3172 24.6322 6.29609C23.9533 4.02266 22.0955 2.5 20.0002 2.5C17.9048 2.5 16.0478 4.02266 15.3689 6.29375C15.3508 6.31411 15.3294 6.33128 15.3056 6.34453C10.9009 8.15781 8.76031 11.6367 8.76031 16.9805C8.76031 22.868 7.72203 24.1227 6.00171 26.1992C5.87671 26.35 5.74937 26.5031 5.61968 26.6625C5.28468 27.0665 5.07243 27.558 5.00805 28.0789C4.94367 28.5997 5.02985 29.1281 5.2564 29.6016C5.73843 30.6172 6.76578 31.2477 7.93843 31.2477H32.0705C33.2377 31.2477 34.258 30.618 34.7416 29.607C34.9691 29.1335 35.0561 28.6047 34.9922 28.0832C34.9284 27.5617 34.7164 27.0695 34.3814 26.6648ZM20.0002 37.5C21.1291 37.4991 22.2367 37.1926 23.2056 36.6132C24.1745 36.0337 24.9684 35.2028 25.5033 34.2086C25.5285 34.1609 25.5409 34.1076 25.5394 34.0537C25.5379 33.9998 25.5225 33.9473 25.4946 33.9011C25.4668 33.855 25.4275 33.8168 25.3806 33.7903C25.3336 33.7638 25.2806 33.7499 25.2267 33.75H14.7752C14.7212 33.7498 14.6681 33.7636 14.621 33.79C14.574 33.8164 14.5346 33.8546 14.5067 33.9008C14.4787 33.947 14.4632 33.9996 14.4617 34.0535C14.4601 34.1075 14.4726 34.1609 14.4978 34.2086C15.0326 35.2027 15.8264 36.0335 16.7952 36.613C17.7639 37.1924 18.8713 37.4989 20.0002 37.5Z" fill="#F8F8F8"/>
</svg>
