<svg width="40" height="40" viewBox="0 0 40 40" fill="none" xmlns="http://www.w3.org/2000/svg">
<path d="M14.1831 3.33325H25.8165C26.2031 3.33325 26.4998 3.33325 26.7598 3.35825C28.6065 3.53992 30.1181 4.64992 30.7598 6.14492H9.2398C9.88147 4.64992 11.3931 3.53992 13.2398 3.35825C13.4965 3.33325 13.7931 3.33325 14.1831 3.33325ZM10.5165 7.87159C8.1998 7.87159 6.2998 9.27159 5.66647 11.1283C5.65258 11.1669 5.63924 11.2058 5.62646 11.2449C6.2898 11.0449 6.98146 10.9116 7.6798 10.8233C9.4798 10.5916 11.7565 10.5916 14.3998 10.5916H25.8865C28.5298 10.5916 30.8048 10.5916 32.6065 10.8233C33.3065 10.9133 33.9965 11.0433 34.6598 11.2449C34.6477 11.2058 34.6349 11.1669 34.6215 11.1283C33.9881 9.27159 32.0881 7.87159 29.7698 7.87159H10.5165Z" fill="#F8F8F8"/>
<path fill-rule="evenodd" clip-rule="evenodd" d="M14.4536 12.5701H25.5469C31.1702 12.5701 33.9836 12.5701 35.5636 14.2151C37.1419 15.8601 36.7702 18.4001 36.0269 23.4817L35.3236 28.3017C34.7402 32.2867 34.4486 34.2801 32.9536 35.4734C31.4586 36.6667 29.2536 36.6667 24.8419 36.6667H15.1586C10.7486 36.6667 8.54189 36.6667 7.04689 35.4734C5.55189 34.2801 5.26022 32.2867 4.67689 28.3017L3.97356 23.4834C3.22856 18.4001 2.85689 15.8601 4.43689 14.2151C6.01689 12.5701 8.83022 12.5701 14.4536 12.5701ZM13.3336 30.0001C13.3336 29.3101 13.9552 28.7501 14.7219 28.7501H25.2786C26.0452 28.7501 26.6669 29.3101 26.6669 30.0001C26.6669 30.6901 26.0452 31.2501 25.2786 31.2501H14.7219C13.9552 31.2501 13.3336 30.6901 13.3336 30.0001Z" fill="#F8F8F8"/>
</svg>
