<svg width="40" height="40" viewBox="0 0 40 40" fill="none" xmlns="http://www.w3.org/2000/svg">
<path d="M20.4344 7.91238C20.3181 7.80111 20.1633 7.73901 20.0023 7.73901C19.8414 7.73901 19.6866 7.80111 19.5703 7.91238L5.1875 21.6522C5.12642 21.7107 5.07782 21.7809 5.04466 21.8586C5.01149 21.9364 4.99444 22.02 4.99453 22.1046L4.99219 34.9999C4.99219 35.6629 5.25558 36.2988 5.72442 36.7676C6.19326 37.2365 6.82915 37.4999 7.49219 37.4999H15C15.3315 37.4999 15.6495 37.3682 15.8839 37.1338C16.1183 36.8993 16.25 36.5814 16.25 36.2499V25.6249C16.25 25.4591 16.3158 25.3001 16.4331 25.1829C16.5503 25.0657 16.7092 24.9999 16.875 24.9999H23.125C23.2908 24.9999 23.4497 25.0657 23.5669 25.1829C23.6842 25.3001 23.75 25.4591 23.75 25.6249V36.2499C23.75 36.5814 23.8817 36.8993 24.1161 37.1338C24.3505 37.3682 24.6685 37.4999 25 37.4999H32.5047C33.1677 37.4999 33.8036 37.2365 34.2725 36.7676C34.7413 36.2988 35.0047 35.6629 35.0047 34.9999V22.1046C35.0048 22.02 34.9877 21.9364 34.9546 21.8586C34.9214 21.7809 34.8728 21.7107 34.8117 21.6522L20.4344 7.91238Z" fill="#F8F8F8"/>
<path d="M38.3524 19.0742L32.5086 13.4836V5C32.5086 4.66848 32.3769 4.35054 32.1425 4.11612C31.9081 3.8817 31.5901 3.75 31.2586 3.75H27.5086C27.1771 3.75 26.8592 3.8817 26.6247 4.11612C26.3903 4.35054 26.2586 4.66848 26.2586 5V7.5L21.7336 3.17344C21.3102 2.74531 20.6805 2.5 20 2.5C19.3219 2.5 18.6938 2.74531 18.2703 3.17422L1.65315 19.0727C1.16722 19.5414 1.10628 20.3125 1.54847 20.8203C1.65951 20.9485 1.79547 21.0527 1.94808 21.1267C2.10068 21.2007 2.26675 21.2428 2.43616 21.2506C2.60557 21.2583 2.77478 21.2315 2.9335 21.1718C3.09222 21.112 3.23713 21.0206 3.3594 20.9031L19.5703 5.4125C19.6867 5.30124 19.8414 5.23914 20.0024 5.23914C20.1633 5.23914 20.3181 5.30124 20.4344 5.4125L36.6469 20.9031C36.8857 21.1321 37.2056 21.2571 37.5364 21.2507C37.8673 21.2442 38.182 21.1069 38.4118 20.8687C38.8914 20.3719 38.8516 19.5516 38.3524 19.0742Z" fill="#F8F8F8"/>
</svg>
