<svg width="40" height="40" viewBox="0 0 40 40" fill="none" xmlns="http://www.w3.org/2000/svg">
<path d="M21.25 33.75V26.25H26.25L20 18.75L13.75 26.25H18.75V33.75H12.5V33.6875C12.29 33.7 12.09 33.75 11.875 33.75C9.3886 33.75 7.00403 32.7623 5.24587 31.0041C3.48772 29.246 2.5 26.8614 2.5 24.375C2.5 19.565 6.1375 15.645 10.805 15.1075C11.2142 12.9682 12.3561 11.0384 14.0343 9.65002C15.7124 8.26159 17.8219 7.50134 20 7.5C22.1784 7.5012 24.2882 8.26136 25.9668 9.64976C27.6454 11.0382 28.7878 12.968 29.1975 15.1075C33.865 15.645 37.4975 19.565 37.4975 24.375C37.4975 26.8614 36.5098 29.246 34.7516 31.0041C32.9935 32.7623 30.6089 33.75 28.1225 33.75C27.9125 33.75 27.71 33.7 27.4975 33.6875V33.75H21.25Z" fill="#FFB000"/>
</svg>
