<svg width="60" height="44" viewBox="0 0 60 44" fill="none" xmlns="http://www.w3.org/2000/svg">
<path fill-rule="evenodd" clip-rule="evenodd" d="M4.61417 10.4841C3.40481 13.2715 2.3624 16.6466 1.46453 20.6444C-1.42813 33.5339 -0.00430088 41.672 5.45726 43.5601C6.2059 43.8237 6.99361 43.9596 7.7874 43.9622C11.5289 43.9622 14.529 40.849 16.5792 38.3004C18.8955 35.4158 21.6069 33.9522 29.9974 33.9522C37.4916 33.9522 40.593 34.9675 43.2719 38.3004C44.9558 40.3957 46.5471 41.8618 48.1347 42.7846C50.2461 44.0109 52.3562 44.2831 54.4051 43.58C57.6328 42.4799 59.4829 39.5716 59.9054 34.9337C60.2267 31.3773 59.7316 26.7058 58.3903 20.6519C55.7389 8.67767 51.7487 2.2866 45.8296 0.540852C44.5854 0.176228 43.2948 -0.0059098 41.9981 0.000146183C40.2843 0.000146183 38.7917 0.417226 37.2128 0.859281C35.3102 1.39249 33.1489 1.99814 29.9974 1.99814C27.2672 1.99814 25.2792 1.54452 23.557 1.07655L21.7872 2.00949L26.736 5.92762L36.9699 4.58077L28.6951 8.4989L20.3179 7.71476L23.6313 11.3871L21.1824 17.9989L21.7872 11.8768L15.3052 7.71476L7.14536 14.4985L3.09053 21.7226L5.30874 14.4985L8.64893 10.4841H4.61417Z" fill="white"/>
<ellipse cx="31.2514" cy="15.7185" rx="1.13346" ry="1.07905" fill="#161C34"/>
<ellipse cx="31.2514" cy="22.5524" rx="1.13346" ry="1.07905" fill="#161C34"/>
<ellipse cx="26.9064" cy="19.1355" rx="1.13346" ry="1.07905" fill="#161C34"/>
<path d="M31.2513 15.7185L26.9064 19.1355" stroke="#161C34" stroke-width="3" stroke-linecap="round"/>
<path d="M31.2513 22.5525L26.9064 19.1355" stroke="#161C34" stroke-width="3" stroke-linecap="round"/>
<path d="M38.4527 27.277C38.8285 25.9778 40.1863 25.2292 41.4855 25.605C42.7847 25.9808 43.5333 27.3386 43.1575 28.6378C42.7817 29.937 41.4238 30.6856 40.1246 30.3098C38.8255 29.934 38.0769 28.5761 38.4527 27.277Z" fill="#FFB800"/>
<path d="M38.4527 27.277C38.8285 25.9778 40.1863 25.2292 41.4855 25.605C42.7847 25.9808 43.5333 27.3386 43.1575 28.6378C42.7817 29.937 41.4238 30.6856 40.1246 30.3098C38.8255 29.934 38.0769 28.5761 38.4527 27.277Z" fill="#FFB800"/>
<path d="M38.4527 27.277C38.8285 25.9778 40.1863 25.2292 41.4855 25.605C42.7847 25.9808 43.5333 27.3386 43.1575 28.6378C42.7817 29.937 41.4238 30.6856 40.1246 30.3098C38.8255 29.934 38.0769 28.5761 38.4527 27.277Z" stroke="#161C34" stroke-width="3"/>
<path d="M11.6465 15.9511C11.3336 14.6353 12.1465 13.315 13.4623 13.0021C14.778 12.6891 16.0983 13.5021 16.4113 14.8178C16.7242 16.1336 15.9113 17.4539 14.5955 17.7668C13.2798 18.0798 11.9595 17.2668 11.6465 15.9511Z" fill="#161C34"/>
<path d="M11.6465 15.9511C11.3336 14.6353 12.1465 13.315 13.4623 13.0021C14.778 12.6891 16.0983 13.5021 16.4113 14.8178C16.7242 16.1336 15.9113 17.4539 14.5955 17.7668C13.2798 18.0798 11.9595 17.2668 11.6465 15.9511Z" fill="#FFB800"/>
<path d="M11.6465 15.9511C11.3336 14.6353 12.1465 13.315 13.4623 13.0021C14.778 12.6891 16.0983 13.5021 16.4113 14.8178C16.7242 16.1336 15.9113 17.4539 14.5955 17.7668C13.2798 18.0798 11.9595 17.2668 11.6465 15.9511Z" fill="#161C34"/>
<path d="M11.6465 15.9511C11.3336 14.6353 12.1465 13.315 13.4623 13.0021C14.778 12.6891 16.0983 13.5021 16.4113 14.8178C16.7242 16.1336 15.9113 17.4539 14.5955 17.7668C13.2798 18.0798 11.9595 17.2668 11.6465 15.9511Z" fill="#FFB800"/>
<path d="M11.6465 15.9511C11.3336 14.6353 12.1465 13.315 13.4623 13.0021C14.778 12.6891 16.0983 13.5021 16.4113 14.8178C16.7242 16.1336 15.9113 17.4539 14.5955 17.7668C13.2798 18.0798 11.9595 17.2668 11.6465 15.9511Z" stroke="#161C34" stroke-width="3"/>
<ellipse cx="45.1259" cy="12.2106" rx="1.31387" ry="1.31387" fill="#FFB800"/>
<ellipse cx="45.1259" cy="17.6849" rx="1.31387" ry="1.53285" fill="#FFB800"/>
<ellipse cx="47.7537" cy="14.8383" rx="1.31387" ry="1.31387" fill="#FFB800"/>
<ellipse cx="42.4982" cy="14.8383" rx="1.31387" ry="1.31387" fill="#FFB800"/>
<rect x="19.2865" y="24.4734" width="1.75182" height="6.56934" rx="0.875912" fill="#FFB800"/>
<rect x="23.2281" y="27.1011" width="1.31387" height="6.13139" rx="0.656934" transform="rotate(90 23.2281 27.1011)" fill="#FFB800"/>
<path fill-rule="evenodd" clip-rule="evenodd" d="M4.72662 12.0021C4.71759 12.2267 4.71303 12.4528 4.71303 12.6805L4.22327 13.66H5.39491L4.72662 12.0021ZM6.16435 6.06726L6.94642 5.08906H8.35844L8.86274 7.66034L9.87133 6.6808H11.8885L12.998 6.0686L13.6031 5.50259L12.0902 5.2115L12.7962 4.96662H15.4186L17.1332 4.47685V3.49732L20.8753 2.46121C19.2818 1.18145 17.3715 0.436279 15.3178 0.436279H14.3092C10.7455 0.436279 7.81398 2.68 6.16435 6.06726Z" fill="white"/>
<path d="M21.6555 3.01343L23.9879 5.45783L26.9342 7.0467L34.177 5.94672L28.2845 8.2689L21.5327 7.78002L18.7092 7.0467L17.9727 5.58005L18.0954 3.80786L21.6555 3.01343Z" fill="white"/>
<path d="M17.2947 4.76538L17.4168 6.66495L19.2487 7.59363L22.7902 11.7727L16.8062 8.05797L15.585 7.29814L13.9343 8.92332L13.631 7.67805L10.0895 6.91823H12.8983L14.2416 5.52521V5.01866L15.4629 5.27193L17.2947 4.76538Z" fill="#FFB800"/>
<path d="M5.75697 7.76833L7.69745 5.64111L8.42514 8.51911L10.3656 7.39294L13.0338 8.01859L13.1551 9.26989L7.94001 13.5243L10.1231 10.3961L10.7295 8.64424L5.27185 10.3961L5.75697 7.76833Z" fill="white"/>
<path d="M7.53466 10.1083L10.0894 9.58276L9.84609 10.0207L9.60278 10.4587H5.70984L7.53466 10.1083Z" fill="#FFB800"/>
<path d="M20.3376 1.04271L23.2281 1.48066L21.2573 2.1376L17.9727 0.82373L20.3376 1.04271Z" fill="#FFB800"/>
<path d="M30.6902 41.291C30.2918 41.7462 29.5837 41.7462 29.1853 41.291L26.9905 38.7836C26.4245 38.1371 26.8837 37.125 27.7429 37.125H32.1326C32.9918 37.125 33.451 38.1371 32.885 38.7836L30.6902 41.291Z" fill="#FFB800"/>
</svg>
