<svg xmlns="http://www.w3.org/2000/svg" xmlns:xlink="http://www.w3.org/1999/xlink" width="500" zoomAndPan="magnify" viewBox="0 0 375 374.999991" height="500" preserveAspectRatio="xMidYMid meet" version="1.0"><defs><g/><clipPath id="b7dcc611fe"><path d="M 80.535156 132.402344 L 199.34375 132.402344 L 199.34375 260.652344 L 80.535156 260.652344 Z M 80.535156 132.402344 " clip-rule="nonzero"/></clipPath><clipPath id="97978a898d"><path d="M 175.71875 132.402344 L 294.460938 132.402344 L 294.460938 260.652344 L 175.71875 260.652344 Z M 175.71875 132.402344 " clip-rule="nonzero"/></clipPath><clipPath id="ee6578a584"><path d="M 122.679688 174.0625 L 166.929688 174.0625 L 166.929688 219.0625 L 122.679688 219.0625 Z M 122.679688 174.0625 " clip-rule="nonzero"/></clipPath><clipPath id="e5aca2058a"><path d="M 233.730469 176.019531 L 251.109375 176.019531 L 251.109375 193.394531 L 233.730469 193.394531 Z M 233.730469 176.019531 " clip-rule="nonzero"/></clipPath><clipPath id="0ad57677b6"><path d="M 242.421875 176.019531 C 237.621094 176.019531 233.730469 179.910156 233.730469 184.707031 C 233.730469 189.507812 237.621094 193.394531 242.421875 193.394531 C 247.21875 193.394531 251.109375 189.507812 251.109375 184.707031 C 251.109375 179.910156 247.21875 176.019531 242.421875 176.019531 Z M 242.421875 176.019531 " clip-rule="nonzero"/></clipPath><clipPath id="a574ad8faa"><path d="M 0.730469 0.0195312 L 18.109375 0.0195312 L 18.109375 17.394531 L 0.730469 17.394531 Z M 0.730469 0.0195312 " clip-rule="nonzero"/></clipPath><clipPath id="67e17030db"><path d="M 9.421875 0.0195312 C 4.621094 0.0195312 0.730469 3.910156 0.730469 8.707031 C 0.730469 13.507812 4.621094 17.394531 9.421875 17.394531 C 14.21875 17.394531 18.109375 13.507812 18.109375 8.707031 C 18.109375 3.910156 14.21875 0.0195312 9.421875 0.0195312 Z M 9.421875 0.0195312 " clip-rule="nonzero"/></clipPath><clipPath id="f9ed75988c"><rect x="0" width="19" y="0" height="18"/></clipPath><clipPath id="420c04c498"><rect x="0" width="153" y="0" height="29"/></clipPath><clipPath id="3c841ac55f"><path d="M 214.144531 199.949219 L 231.519531 199.949219 L 231.519531 217.328125 L 214.144531 217.328125 Z M 214.144531 199.949219 " clip-rule="nonzero"/></clipPath><clipPath id="6c34f25e93"><path d="M 222.832031 199.949219 C 218.03125 199.949219 214.144531 203.839844 214.144531 208.636719 C 214.144531 213.4375 218.03125 217.328125 222.832031 217.328125 C 227.628906 217.328125 231.519531 213.4375 231.519531 208.636719 C 231.519531 203.839844 227.628906 199.949219 222.832031 199.949219 Z M 222.832031 199.949219 " clip-rule="nonzero"/></clipPath><clipPath id="d13c31d1d5"><path d="M 0.144531 0.949219 L 17.519531 0.949219 L 17.519531 18.328125 L 0.144531 18.328125 Z M 0.144531 0.949219 " clip-rule="nonzero"/></clipPath><clipPath id="8efbe6eafe"><path d="M 8.832031 0.949219 C 4.03125 0.949219 0.144531 4.839844 0.144531 9.636719 C 0.144531 14.4375 4.03125 18.328125 8.832031 18.328125 C 13.628906 18.328125 17.519531 14.4375 17.519531 9.636719 C 17.519531 4.839844 13.628906 0.949219 8.832031 0.949219 Z M 8.832031 0.949219 " clip-rule="nonzero"/></clipPath><clipPath id="30c246920a"><rect x="0" width="18" y="0" height="19"/></clipPath></defs><g clip-path="url(#b7dcc611fe)"><path fill="#b4b4b4" d="M 144.800781 260.933594 C 109.359375 260.933594 80.535156 232.109375 80.535156 196.667969 C 80.535156 161.230469 109.359375 132.402344 144.800781 132.402344 C 165.457031 132.402344 184.964844 142.394531 196.980469 159.203125 C 200.765625 164.46875 199.546875 171.761719 194.351562 175.472656 C 189.085938 179.253906 181.792969 178.039062 178.082031 172.839844 C 170.386719 162.175781 157.964844 155.761719 144.867188 155.761719 C 122.320312 155.761719 103.957031 174.125 103.957031 196.667969 C 103.957031 219.21875 122.320312 237.578125 144.867188 237.578125 C 158.03125 237.578125 170.453125 231.230469 178.082031 220.5 C 181.863281 215.234375 189.152344 214.085938 194.351562 217.867188 C 199.613281 221.648438 200.765625 228.9375 196.980469 234.136719 C 184.898438 250.878906 165.390625 260.933594 144.800781 260.933594 " fill-opacity="1" fill-rule="nonzero"/></g><g clip-path="url(#97978a898d)"><path fill="#b4b4b4" d="M 230.195312 260.933594 C 209.539062 260.933594 190.027344 250.945312 178.011719 234.136719 C 174.234375 228.867188 175.449219 221.582031 180.644531 217.867188 C 185.914062 214.085938 193.199219 215.300781 196.914062 220.5 C 204.609375 231.164062 217.03125 237.578125 230.128906 237.578125 C 252.675781 237.578125 271.035156 219.21875 271.035156 196.667969 C 271.035156 174.125 252.675781 155.761719 230.128906 155.761719 C 216.964844 155.761719 204.542969 162.105469 196.914062 172.839844 C 193.136719 178.105469 185.84375 179.253906 180.644531 175.472656 C 175.378906 171.691406 174.234375 164.402344 178.011719 159.203125 C 190.097656 142.460938 209.605469 132.402344 230.195312 132.402344 C 265.636719 132.402344 294.460938 161.230469 294.460938 196.667969 C 294.460938 232.109375 265.636719 260.933594 230.195312 260.933594 " fill-opacity="1" fill-rule="nonzero"/></g><path fill="#a6a6a6" d="M 187.464844 215.570312 C 195.515625 215.570312 202.046875 222.101562 202.046875 230.152344 C 202.046875 238.207031 195.515625 244.734375 187.464844 244.734375 C 179.414062 244.734375 172.882812 238.207031 172.882812 230.152344 C 172.882812 222.101562 179.414062 215.570312 187.464844 215.570312 " fill-opacity="1" fill-rule="nonzero"/><path fill="#d9d9d9" d="M 187.464844 148.535156 C 195.515625 148.535156 202.046875 155.066406 202.046875 163.121094 C 202.046875 171.171875 195.515625 177.703125 187.464844 177.703125 C 179.414062 177.703125 172.882812 171.171875 172.882812 163.121094 C 172.882812 155.066406 179.414062 148.535156 187.464844 148.535156 " fill-opacity="1" fill-rule="nonzero"/><g clip-path="url(#ee6578a584)"><path fill="#b4b4b4" d="M 139.691406 191.445312 L 139.691406 179.757812 C 139.691406 178.125 140.136719 176.796875 141.03125 175.773438 C 141.925781 174.726562 143.203125 174.203125 144.863281 174.203125 C 146.523438 174.203125 147.800781 174.726562 148.695312 175.773438 C 149.613281 176.796875 150.074219 178.125 150.074219 179.757812 L 150.074219 191.445312 L 161.605469 191.445312 C 163.292969 191.445312 164.621094 191.902344 165.589844 192.824219 C 166.585938 193.71875 167.085938 194.980469 167.085938 196.617188 C 167.085938 198.277344 166.585938 199.566406 165.589844 200.484375 C 164.621094 201.40625 163.292969 201.863281 161.605469 201.863281 L 150.074219 201.863281 L 150.074219 213.511719 C 150.074219 215.171875 149.613281 216.511719 148.695312 217.535156 C 147.773438 218.554688 146.496094 219.066406 144.863281 219.066406 C 143.230469 219.066406 141.953125 218.554688 141.03125 217.535156 C 140.136719 216.511719 139.691406 215.171875 139.691406 213.511719 L 139.691406 201.863281 L 128.160156 201.863281 C 126.523438 201.863281 125.195312 201.367188 124.175781 200.371094 C 123.179688 199.347656 122.679688 198.097656 122.679688 196.617188 C 122.679688 194.980469 123.164062 193.71875 124.136719 192.824219 C 125.132812 191.902344 126.472656 191.445312 128.160156 191.445312 Z M 139.691406 191.445312 " fill-opacity="1" fill-rule="nonzero"/></g><g clip-path="url(#e5aca2058a)"><g clip-path="url(#0ad57677b6)"><g transform="matrix(1, 0, 0, 1, 233, 176)"><g clip-path="url(#f9ed75988c)"><g clip-path="url(#a574ad8faa)"><g clip-path="url(#67e17030db)"><path fill="#b4b4b4" d="M 0.730469 0.0195312 L 18.109375 0.0195312 L 18.109375 17.394531 L 0.730469 17.394531 Z M 0.730469 0.0195312 " fill-opacity="1" fill-rule="nonzero"/></g></g></g></g></g></g><g transform="matrix(1, 0, 0, 1, 112, 269)"><g clip-path="url(#420c04c498)"><g fill="#b4b4b4" fill-opacity="1"><g transform="translate(1.279391, 11.719978)"><g><path d="M 8.953125 -6.328125 L 6.96875 -7 L 4.40625 0.453125 L 6.390625 1.125 L 6.0625 2.078125 L 0.953125 0.328125 L 1.28125 -0.625 L 3.25 0.046875 L 5.8125 -7.40625 L 3.84375 -8.078125 L 4.171875 -9.03125 L 9.28125 -7.28125 Z M 8.953125 -6.328125 "/></g></g></g><g fill="#b4b4b4" fill-opacity="1"><g transform="translate(8.397918, 14.177629)"><g><path d="M 7.125 -5.859375 C 8.019531 -5.585938 8.597656 -5.15625 8.859375 -4.5625 C 9.117188 -3.96875 9.109375 -3.210938 8.828125 -2.296875 L 7.453125 2.25 L 6.3125 1.90625 L 7.640625 -2.5 C 7.867188 -3.257812 7.875 -3.828125 7.65625 -4.203125 C 7.4375 -4.578125 7.0625 -4.84375 6.53125 -5 C 5.738281 -5.238281 5.046875 -5.113281 4.453125 -4.625 C 3.859375 -4.144531 3.378906 -3.289062 3.015625 -2.0625 L 2.1875 0.65625 L 1.03125 0.3125 L 3.1875 -6.8125 L 4.34375 -6.46875 L 3.78125 -4.59375 C 4.1875 -5.164062 4.671875 -5.570312 5.234375 -5.8125 C 5.796875 -6.050781 6.425781 -6.066406 7.125 -5.859375 Z M 7.125 -5.859375 "/></g></g></g><g fill="#b4b4b4" fill-opacity="1"><g transform="translate(16.872479, 16.74034)"><g><path d="M 9.328125 -8.34375 L 10.484375 -8.046875 L 7.890625 2.03125 L 6.734375 1.734375 L 7.09375 0.359375 C 6.71875 0.796875 6.265625 1.097656 5.734375 1.265625 C 5.203125 1.429688 4.609375 1.429688 3.953125 1.265625 C 3.191406 1.066406 2.609375 0.738281 2.203125 0.28125 C 1.796875 -0.164062 1.550781 -0.710938 1.46875 -1.359375 C 1.394531 -2.003906 1.453125 -2.6875 1.640625 -3.40625 C 1.835938 -4.144531 2.125 -4.773438 2.5 -5.296875 C 2.875 -5.828125 3.347656 -6.191406 3.921875 -6.390625 C 4.503906 -6.585938 5.175781 -6.585938 5.9375 -6.390625 C 6.59375 -6.222656 7.113281 -5.941406 7.5 -5.546875 C 7.882812 -5.148438 8.128906 -4.671875 8.234375 -4.109375 Z M 4.421875 0.375 C 5.191406 0.570312 5.859375 0.5 6.421875 0.15625 C 6.984375 -0.175781 7.394531 -0.847656 7.65625 -1.859375 C 7.925781 -2.878906 7.894531 -3.671875 7.5625 -4.234375 C 7.226562 -4.804688 6.675781 -5.191406 5.90625 -5.390625 C 5.09375 -5.597656 4.429688 -5.507812 3.921875 -5.125 C 3.421875 -4.75 3.046875 -4.078125 2.796875 -3.109375 C 2.554688 -2.148438 2.5625 -1.378906 2.8125 -0.796875 C 3.070312 -0.222656 3.609375 0.164062 4.421875 0.375 Z M 4.421875 0.375 "/></g></g></g><g fill="#b4b4b4" fill-opacity="1"><g transform="translate(25.906874, 19.060263)"><g><path d="M 4.5 0.28125 C 5.207031 0.425781 5.769531 0.382812 6.1875 0.15625 C 6.613281 -0.0625 6.925781 -0.390625 7.125 -0.828125 L 8.203125 -0.59375 C 8.066406 -0.226562 7.84375 0.117188 7.53125 0.453125 C 7.21875 0.785156 6.796875 1.03125 6.265625 1.1875 C 5.734375 1.34375 5.066406 1.332031 4.265625 1.15625 C 3.429688 0.976562 2.78125 0.660156 2.3125 0.203125 C 1.851562 -0.253906 1.5625 -0.800781 1.4375 -1.4375 C 1.3125 -2.082031 1.328125 -2.769531 1.484375 -3.5 C 1.640625 -4.21875 1.910156 -4.84375 2.296875 -5.375 C 2.691406 -5.90625 3.191406 -6.28125 3.796875 -6.5 C 4.398438 -6.71875 5.109375 -6.742188 5.921875 -6.578125 C 6.640625 -6.421875 7.21875 -6.128906 7.65625 -5.703125 C 8.101562 -5.285156 8.40625 -4.78125 8.5625 -4.1875 C 8.71875 -3.59375 8.71875 -2.9375 8.5625 -2.21875 C 8.539062 -2.132812 8.519531 -2.050781 8.5 -1.96875 C 8.488281 -1.882812 8.460938 -1.800781 8.421875 -1.71875 L 2.5625 -2.984375 C 2.40625 -1.972656 2.503906 -1.210938 2.859375 -0.703125 C 3.210938 -0.203125 3.757812 0.125 4.5 0.28125 Z M 5.75 -5.6875 C 5.050781 -5.832031 4.445312 -5.773438 3.9375 -5.515625 C 3.425781 -5.253906 3.039062 -4.695312 2.78125 -3.84375 L 7.484375 -2.84375 C 7.640625 -3.675781 7.554688 -4.320312 7.234375 -4.78125 C 6.910156 -5.238281 6.414062 -5.539062 5.75 -5.6875 Z M 5.75 -5.6875 "/></g></g></g><g fill="#b4b4b4" fill-opacity="1"><g transform="translate(34.417371, 20.886748)"><g><path d="M 6.28125 -6.703125 C 7.050781 -6.578125 7.65625 -6.300781 8.09375 -5.875 C 8.53125 -5.457031 8.816406 -4.929688 8.953125 -4.296875 C 9.097656 -3.671875 9.101562 -2.984375 8.96875 -2.234375 C 8.84375 -1.484375 8.609375 -0.832031 8.265625 -0.28125 C 7.921875 0.269531 7.472656 0.664062 6.921875 0.90625 C 6.367188 1.15625 5.707031 1.21875 4.9375 1.09375 C 4.257812 0.976562 3.71875 0.738281 3.3125 0.375 C 2.914062 0.0195312 2.628906 -0.441406 2.453125 -1.015625 L 1.71875 3.296875 L 0.546875 3.09375 L 2.296875 -7.15625 L 3.46875 -6.953125 L 3.234375 -5.546875 C 3.585938 -6.015625 4.015625 -6.351562 4.515625 -6.5625 C 5.015625 -6.769531 5.601562 -6.816406 6.28125 -6.703125 Z M 4.875 0.09375 C 5.707031 0.238281 6.359375 0.101562 6.828125 -0.3125 C 7.296875 -0.738281 7.613281 -1.445312 7.78125 -2.4375 C 7.945312 -3.414062 7.878906 -4.179688 7.578125 -4.734375 C 7.285156 -5.296875 6.722656 -5.648438 5.890625 -5.796875 C 5.117188 -5.929688 4.460938 -5.804688 3.921875 -5.421875 C 3.378906 -5.035156 3.019531 -4.328125 2.84375 -3.296875 C 2.664062 -2.253906 2.765625 -1.460938 3.140625 -0.921875 C 3.523438 -0.378906 4.101562 -0.0390625 4.875 0.09375 Z M 4.875 0.09375 "/></g></g></g><g fill="#b4b4b4" fill-opacity="1"><g transform="translate(43.61306, 22.454568)"><g><path d="M 4.515625 -0.09375 C 5.234375 0 5.789062 -0.078125 6.1875 -0.328125 C 6.582031 -0.585938 6.863281 -0.945312 7.03125 -1.40625 L 8.125 -1.265625 C 8.019531 -0.890625 7.820312 -0.523438 7.53125 -0.171875 C 7.25 0.179688 6.847656 0.457031 6.328125 0.65625 C 5.816406 0.851562 5.15625 0.898438 4.34375 0.796875 C 3.488281 0.691406 2.8125 0.425781 2.3125 0 C 1.820312 -0.414062 1.488281 -0.9375 1.3125 -1.5625 C 1.144531 -2.195312 1.109375 -2.878906 1.203125 -3.609375 C 1.296875 -4.335938 1.515625 -4.976562 1.859375 -5.53125 C 2.203125 -6.09375 2.664062 -6.507812 3.25 -6.78125 C 3.832031 -7.0625 4.535156 -7.148438 5.359375 -7.046875 C 6.085938 -6.953125 6.6875 -6.710938 7.15625 -6.328125 C 7.632812 -5.941406 7.976562 -5.457031 8.1875 -4.875 C 8.394531 -4.289062 8.453125 -3.640625 8.359375 -2.921875 C 8.335938 -2.828125 8.320312 -2.738281 8.3125 -2.65625 C 8.300781 -2.570312 8.28125 -2.488281 8.25 -2.40625 L 2.3125 -3.171875 C 2.238281 -2.160156 2.398438 -1.421875 2.796875 -0.953125 C 3.191406 -0.484375 3.765625 -0.195312 4.515625 -0.09375 Z M 5.265625 -6.140625 C 4.554688 -6.222656 3.957031 -6.113281 3.46875 -5.8125 C 2.988281 -5.507812 2.65625 -4.925781 2.46875 -4.0625 L 7.234375 -3.453125 C 7.304688 -4.296875 7.164062 -4.929688 6.8125 -5.359375 C 6.457031 -5.785156 5.941406 -6.046875 5.265625 -6.140625 Z M 5.265625 -6.140625 "/></g></g></g><g fill="#b4b4b4" fill-opacity="1"><g transform="translate(52.240311, 23.570804)"><g><path d="M 5.78125 -7.1875 C 6.707031 -7.101562 7.359375 -6.796875 7.734375 -6.265625 C 8.109375 -5.734375 8.253906 -4.992188 8.171875 -4.046875 L 7.75 0.6875 L 6.5625 0.578125 L 6.96875 -4.015625 C 7.039062 -4.804688 6.929688 -5.359375 6.640625 -5.671875 C 6.347656 -5.984375 5.925781 -6.164062 5.375 -6.21875 C 4.550781 -6.289062 3.894531 -6.03125 3.40625 -5.4375 C 2.925781 -4.84375 2.628906 -3.90625 2.515625 -2.625 L 2.265625 0.203125 L 1.078125 0.09375 L 1.734375 -7.3125 L 2.921875 -7.203125 L 2.75 -5.265625 C 3.039062 -5.910156 3.4375 -6.40625 3.9375 -6.75 C 4.4375 -7.101562 5.050781 -7.25 5.78125 -7.1875 Z M 5.78125 -7.1875 "/></g></g></g><g fill="#b4b4b4" fill-opacity="1"><g transform="translate(61.059971, 24.356066)"><g><path d="M 7.4375 -10.0625 L 8.609375 -10 L 8.125 0.390625 L 6.953125 0.328125 L 7.015625 -1.09375 C 6.742188 -0.582031 6.363281 -0.191406 5.875 0.078125 C 5.382812 0.347656 4.800781 0.460938 4.125 0.421875 C 3.34375 0.390625 2.707031 0.191406 2.21875 -0.171875 C 1.726562 -0.535156 1.378906 -1.023438 1.171875 -1.640625 C 0.960938 -2.253906 0.875 -2.9375 0.90625 -3.6875 C 0.945312 -4.445312 1.097656 -5.117188 1.359375 -5.703125 C 1.628906 -6.296875 2.023438 -6.742188 2.546875 -7.046875 C 3.066406 -7.359375 3.71875 -7.5 4.5 -7.46875 C 5.175781 -7.425781 5.742188 -7.253906 6.203125 -6.953125 C 6.671875 -6.648438 7.015625 -6.234375 7.234375 -5.703125 Z M 4.40625 -0.53125 C 5.195312 -0.488281 5.832031 -0.691406 6.3125 -1.140625 C 6.800781 -1.585938 7.070312 -2.335938 7.125 -3.390625 C 7.175781 -4.441406 6.976562 -5.210938 6.53125 -5.703125 C 6.09375 -6.191406 5.476562 -6.457031 4.6875 -6.5 C 3.84375 -6.539062 3.210938 -6.320312 2.796875 -5.84375 C 2.390625 -5.363281 2.160156 -4.625 2.109375 -3.625 C 2.066406 -2.632812 2.226562 -1.878906 2.59375 -1.359375 C 2.957031 -0.847656 3.5625 -0.570312 4.40625 -0.53125 Z M 4.40625 -0.53125 "/></g></g></g><g fill="#b4b4b4" fill-opacity="1"><g transform="translate(70.374507, 24.783641)"><g><path d="M 3.3125 0.203125 C 2.601562 0.203125 2.015625 0.0195312 1.546875 -0.34375 C 1.085938 -0.71875 0.863281 -1.257812 0.875 -1.96875 C 0.875 -2.570312 1.050781 -3.054688 1.40625 -3.421875 C 1.769531 -3.796875 2.351562 -4.046875 3.15625 -4.171875 L 5.046875 -4.46875 C 5.441406 -4.539062 5.722656 -4.640625 5.890625 -4.765625 C 6.066406 -4.890625 6.15625 -5.09375 6.15625 -5.375 C 6.164062 -5.75 6.046875 -6.066406 5.796875 -6.328125 C 5.554688 -6.585938 5.070312 -6.71875 4.34375 -6.71875 C 3.625 -6.726562 3.109375 -6.578125 2.796875 -6.265625 C 2.484375 -5.960938 2.300781 -5.570312 2.25 -5.09375 L 1.078125 -5.109375 C 1.109375 -5.898438 1.394531 -6.523438 1.9375 -6.984375 C 2.488281 -7.441406 3.273438 -7.664062 4.296875 -7.65625 C 5.316406 -7.644531 6.066406 -7.425781 6.546875 -7 C 7.023438 -6.582031 7.257812 -6.039062 7.25 -5.375 L 7.234375 -1.796875 C 7.234375 -1.523438 7.234375 -1.238281 7.234375 -0.9375 C 7.242188 -0.644531 7.265625 -0.316406 7.296875 0.046875 L 6.21875 0.046875 C 6.1875 -0.265625 6.160156 -0.5625 6.140625 -0.84375 C 6.128906 -1.132812 6.125 -1.414062 6.125 -1.6875 C 6.039062 -1.394531 5.882812 -1.101562 5.65625 -0.8125 C 5.425781 -0.519531 5.125 -0.273438 4.75 -0.078125 C 4.375 0.117188 3.894531 0.210938 3.3125 0.203125 Z M 3.5625 -0.71875 C 4.144531 -0.71875 4.628906 -0.847656 5.015625 -1.109375 C 5.398438 -1.378906 5.679688 -1.722656 5.859375 -2.140625 C 6.046875 -2.566406 6.144531 -3.015625 6.15625 -3.484375 L 6.15625 -4.125 C 5.96875 -3.988281 5.769531 -3.882812 5.5625 -3.8125 C 5.351562 -3.75 5.109375 -3.6875 4.828125 -3.625 L 3.59375 -3.375 C 3.070312 -3.28125 2.6875 -3.128906 2.4375 -2.921875 C 2.195312 -2.710938 2.078125 -2.40625 2.078125 -2 C 2.078125 -1.570312 2.210938 -1.253906 2.484375 -1.046875 C 2.765625 -0.835938 3.125 -0.726562 3.5625 -0.71875 Z M 3.5625 -0.71875 "/></g></g></g><g fill="#b4b4b4" fill-opacity="1"><g transform="translate(78.65502, 24.843316)"><g><path d="M 4.875 -7.84375 C 5.8125 -7.863281 6.492188 -7.632812 6.921875 -7.15625 C 7.359375 -6.675781 7.59375 -5.957031 7.625 -5 L 7.78125 -0.25 L 6.59375 -0.21875 L 6.453125 -4.828125 C 6.421875 -5.617188 6.238281 -6.15625 5.90625 -6.4375 C 5.570312 -6.71875 5.128906 -6.847656 4.578125 -6.828125 C 3.753906 -6.796875 3.140625 -6.457031 2.734375 -5.8125 C 2.328125 -5.164062 2.144531 -4.203125 2.1875 -2.921875 L 2.28125 -0.078125 L 1.078125 -0.03125 L 0.84375 -7.46875 L 2.046875 -7.515625 L 2.109375 -5.5625 C 2.316406 -6.238281 2.644531 -6.78125 3.09375 -7.1875 C 3.550781 -7.59375 4.144531 -7.8125 4.875 -7.84375 Z M 4.875 -7.84375 "/></g></g></g><g fill="#b4b4b4" fill-opacity="1"><g transform="translate(87.4758, 24.534433)"><g><path d="M 3.515625 -0.234375 C 2.796875 -0.179688 2.300781 -0.285156 2.03125 -0.546875 C 1.769531 -0.816406 1.625 -1.25 1.59375 -1.84375 L 1.28125 -6.59375 L -0.125 -6.5 L -0.171875 -7.171875 L 1.3125 -7.65625 L 1.671875 -9.234375 L 2.3125 -9.265625 L 2.421875 -7.609375 L 4.859375 -7.78125 L 4.921875 -6.84375 L 2.484375 -6.671875 L 2.84375 -1.15625 L 5.1875 -1.3125 L 5.25 -0.34375 Z M 3.515625 -0.234375 "/></g></g></g><g fill="#b4b4b4" fill-opacity="1"><g transform="translate(93.346893, 24.132767)"><g/></g></g><g fill="#b4b4b4" fill-opacity="1"><g transform="translate(96.803675, 23.902306)"><g><path d="M 5.59375 -0.4375 C 4.507812 -0.300781 3.585938 -0.410156 2.828125 -0.765625 C 2.078125 -1.117188 1.484375 -1.664062 1.046875 -2.40625 C 0.609375 -3.144531 0.332031 -4.015625 0.21875 -5.015625 C 0.09375 -6.003906 0.160156 -6.910156 0.421875 -7.734375 C 0.691406 -8.566406 1.164062 -9.25 1.84375 -9.78125 C 2.519531 -10.3125 3.421875 -10.644531 4.546875 -10.78125 C 6.015625 -10.96875 7.164062 -10.785156 8 -10.234375 C 8.84375 -9.679688 9.410156 -8.800781 9.703125 -7.59375 L 8.4375 -7.4375 C 8.195312 -8.363281 7.769531 -9.019531 7.15625 -9.40625 C 6.550781 -9.789062 5.707031 -9.914062 4.625 -9.78125 C 3.375 -9.625 2.492188 -9.160156 1.984375 -8.390625 C 1.484375 -7.628906 1.320312 -6.554688 1.5 -5.171875 C 1.664062 -3.804688 2.082031 -2.8125 2.75 -2.1875 C 3.414062 -1.5625 4.378906 -1.328125 5.640625 -1.484375 C 6.421875 -1.578125 7.035156 -1.785156 7.484375 -2.109375 C 7.929688 -2.429688 8.253906 -2.847656 8.453125 -3.359375 C 8.648438 -3.867188 8.757812 -4.429688 8.78125 -5.046875 L 4.34375 -4.515625 L 4.234375 -5.4375 L 9.859375 -6.125 L 10.453125 -1.296875 L 9.359375 -1.15625 L 9.0625 -3.546875 C 8.976562 -3.054688 8.800781 -2.585938 8.53125 -2.140625 C 8.269531 -1.703125 7.898438 -1.328125 7.421875 -1.015625 C 6.953125 -0.710938 6.34375 -0.519531 5.59375 -0.4375 Z M 5.59375 -0.4375 "/></g></g></g><g fill="#b4b4b4" fill-opacity="1"><g transform="translate(108.478339, 22.430919)"><g><path d="M 3.296875 -0.359375 C 2.597656 -0.242188 1.988281 -0.328125 1.46875 -0.609375 C 0.945312 -0.890625 0.628906 -1.378906 0.515625 -2.078125 C 0.410156 -2.671875 0.5 -3.179688 0.78125 -3.609375 C 1.070312 -4.046875 1.601562 -4.390625 2.375 -4.640625 L 4.203125 -5.28125 C 4.578125 -5.414062 4.835938 -5.5625 4.984375 -5.71875 C 5.140625 -5.875 5.191406 -6.085938 5.140625 -6.359375 C 5.078125 -6.734375 4.898438 -7.023438 4.609375 -7.234375 C 4.328125 -7.453125 3.828125 -7.5 3.109375 -7.375 C 2.398438 -7.25 1.914062 -7.007812 1.65625 -6.65625 C 1.40625 -6.300781 1.296875 -5.882812 1.328125 -5.40625 L 0.171875 -5.203125 C 0.0664062 -5.992188 0.242188 -6.660156 0.703125 -7.203125 C 1.171875 -7.753906 1.90625 -8.113281 2.90625 -8.28125 C 3.914062 -8.457031 4.691406 -8.375 5.234375 -8.03125 C 5.773438 -7.695312 6.101562 -7.203125 6.21875 -6.546875 L 6.8125 -3.015625 C 6.863281 -2.753906 6.914062 -2.476562 6.96875 -2.1875 C 7.03125 -1.894531 7.101562 -1.570312 7.1875 -1.21875 L 6.125 -1.03125 C 6.039062 -1.34375 5.96875 -1.632812 5.90625 -1.90625 C 5.84375 -2.1875 5.785156 -2.457031 5.734375 -2.71875 C 5.703125 -2.425781 5.597656 -2.113281 5.421875 -1.78125 C 5.253906 -1.457031 5 -1.164062 4.65625 -0.90625 C 4.320312 -0.644531 3.867188 -0.460938 3.296875 -0.359375 Z M 3.390625 -1.328125 C 3.960938 -1.421875 4.410156 -1.632812 4.734375 -1.96875 C 5.066406 -2.300781 5.289062 -2.6875 5.40625 -3.125 C 5.519531 -3.570312 5.535156 -4.03125 5.453125 -4.5 L 5.34375 -5.125 C 5.1875 -4.957031 5.007812 -4.820312 4.8125 -4.71875 C 4.613281 -4.625 4.382812 -4.519531 4.125 -4.40625 L 2.953125 -3.953125 C 2.453125 -3.765625 2.097656 -3.546875 1.890625 -3.296875 C 1.691406 -3.054688 1.625 -2.734375 1.6875 -2.328125 C 1.757812 -1.910156 1.953125 -1.617188 2.265625 -1.453125 C 2.578125 -1.296875 2.953125 -1.253906 3.390625 -1.328125 Z M 3.390625 -1.328125 "/></g></g></g><g fill="#b4b4b4" fill-opacity="1"><g transform="translate(116.694784, 21.108165)"><g><path d="M 8.3125 -9.6875 C 9.945312 -10.050781 10.972656 -9.300781 11.390625 -7.4375 L 12.421875 -2.75 L 11.265625 -2.5 L 10.265625 -7.046875 C 10.097656 -7.773438 9.835938 -8.253906 9.484375 -8.484375 C 9.140625 -8.710938 8.695312 -8.765625 8.15625 -8.640625 C 7.363281 -8.460938 6.851562 -8.023438 6.625 -7.328125 C 6.394531 -6.628906 6.421875 -5.65625 6.703125 -4.40625 L 7.3125 -1.625 L 6.171875 -1.375 L 5.171875 -5.921875 C 5.003906 -6.648438 4.742188 -7.125 4.390625 -7.34375 C 4.035156 -7.570312 3.59375 -7.628906 3.0625 -7.515625 C 2.289062 -7.335938 1.785156 -6.898438 1.546875 -6.203125 C 1.316406 -5.503906 1.34375 -4.53125 1.625 -3.28125 L 2.234375 -0.5 L 1.046875 -0.234375 L -0.5625 -7.5 L 0.625 -7.765625 L 1.015625 -5.96875 C 1.085938 -6.644531 1.296875 -7.207031 1.640625 -7.65625 C 1.984375 -8.101562 2.503906 -8.40625 3.203125 -8.5625 C 4.585938 -8.863281 5.535156 -8.363281 6.046875 -7.0625 C 6.109375 -7.738281 6.316406 -8.304688 6.671875 -8.765625 C 7.035156 -9.222656 7.582031 -9.53125 8.3125 -9.6875 Z M 8.3125 -9.6875 "/></g></g></g><g fill="#b4b4b4" fill-opacity="1"><g transform="translate(130.126881, 18.024658)"><g><path d="M -1.3125 -8.609375 L -1.625 -9.796875 L -0.140625 -10.1875 L 0.171875 -9 Z M 1.046875 -0.28125 L -0.84375 -7.46875 L 0.3125 -7.765625 L 2.203125 -0.578125 Z M 1.046875 -0.28125 "/></g></g></g><g fill="#b4b4b4" fill-opacity="1"><g transform="translate(133.491987, 17.175372)"><g><path d="M 2.765625 -8.796875 C 3.660156 -9.066406 4.375 -9.019531 4.90625 -8.65625 C 5.445312 -8.300781 5.851562 -7.664062 6.125 -6.75 L 7.46875 -2.1875 L 6.328125 -1.859375 L 5.03125 -6.28125 C 4.800781 -7.039062 4.488281 -7.515625 4.09375 -7.703125 C 3.707031 -7.890625 3.253906 -7.90625 2.734375 -7.75 C 1.941406 -7.519531 1.425781 -7.039062 1.1875 -6.3125 C 0.957031 -5.582031 1.023438 -4.601562 1.390625 -3.375 L 2.1875 -0.640625 L 1.03125 -0.296875 L -1.0625 -7.4375 L 0.09375 -7.78125 L 0.640625 -5.90625 C 0.671875 -6.613281 0.859375 -7.222656 1.203125 -7.734375 C 1.546875 -8.242188 2.066406 -8.597656 2.765625 -8.796875 Z M 2.765625 -8.796875 "/></g></g></g><g fill="#b4b4b4" fill-opacity="1"><g transform="translate(141.987705, 14.684218)"><g><path d="M 4.171875 -9.265625 L 5.28125 -9.65625 L 7.671875 -2.59375 C 7.890625 -1.96875 7.957031 -1.394531 7.875 -0.875 C 7.800781 -0.363281 7.550781 0.09375 7.125 0.5 C 6.695312 0.90625 6.0625 1.253906 5.21875 1.546875 C 4.164062 1.898438 3.285156 1.945312 2.578125 1.6875 C 1.867188 1.4375 1.34375 0.925781 1 0.15625 L 2.109375 -0.21875 C 2.316406 0.226562 2.640625 0.550781 3.078125 0.75 C 3.515625 0.957031 4.125 0.929688 4.90625 0.671875 C 5.726562 0.390625 6.269531 0.0234375 6.53125 -0.421875 C 6.800781 -0.867188 6.8125 -1.46875 6.5625 -2.21875 L 6.046875 -3.75 C 5.867188 -2.664062 5.148438 -1.90625 3.890625 -1.46875 C 2.773438 -1.09375 1.84375 -1.140625 1.09375 -1.609375 C 0.351562 -2.085938 -0.195312 -2.863281 -0.5625 -3.9375 C -0.9375 -5.019531 -0.96875 -5.96875 -0.65625 -6.78125 C -0.34375 -7.59375 0.367188 -8.1875 1.484375 -8.5625 C 2.117188 -8.78125 2.695312 -8.84375 3.21875 -8.75 C 3.738281 -8.664062 4.191406 -8.429688 4.578125 -8.046875 Z M 3.859375 -2.453125 C 4.609375 -2.710938 5.117188 -3.113281 5.390625 -3.65625 C 5.660156 -4.207031 5.632812 -4.960938 5.3125 -5.921875 C 4.988281 -6.878906 4.550781 -7.488281 4 -7.75 C 3.445312 -8.019531 2.796875 -8.023438 2.046875 -7.765625 C 1.242188 -7.492188 0.71875 -7.09375 0.46875 -6.5625 C 0.21875 -6.03125 0.253906 -5.285156 0.578125 -4.328125 C 0.898438 -3.378906 1.328125 -2.757812 1.859375 -2.46875 C 2.390625 -2.1875 3.054688 -2.179688 3.859375 -2.453125 Z M 3.859375 -2.453125 "/></g></g></g></g></g><g clip-path="url(#3c841ac55f)"><g clip-path="url(#6c34f25e93)"><g transform="matrix(1, 0, 0, 1, 214, 199)"><g clip-path="url(#30c246920a)"><g clip-path="url(#d13c31d1d5)"><g clip-path="url(#8efbe6eafe)"><path fill="#b4b4b4" d="M 0.144531 0.949219 L 17.519531 0.949219 L 17.519531 18.328125 L 0.144531 18.328125 Z M 0.144531 0.949219 " fill-opacity="1" fill-rule="nonzero"/></g></g></g></g></g></g><g fill="#b4b4b4" fill-opacity="1"><g transform="translate(66.593746, 160.779686)"><g><path d="M 6.140625 -10.890625 C 6.578125 -11.285156 6.984375 -11.78125 7.359375 -12.375 C 7.742188 -12.976562 7.972656 -13.601562 8.046875 -14.25 C 8.128906 -14.894531 7.921875 -15.488281 7.421875 -16.03125 C 6.960938 -16.53125 6.398438 -16.757812 5.734375 -16.71875 C 5.066406 -16.675781 4.328125 -16.46875 3.515625 -16.09375 C 2.703125 -15.71875 1.84375 -15.269531 0.9375 -14.75 C 0.03125 -14.226562 -0.910156 -13.742188 -1.890625 -13.296875 C -2.867188 -12.859375 -3.851562 -12.546875 -4.84375 -12.359375 C -5.832031 -12.179688 -6.8125 -12.226562 -7.78125 -12.5 C -8.75 -12.78125 -9.679688 -13.40625 -10.578125 -14.375 C -11.441406 -15.332031 -11.992188 -16.335938 -12.234375 -17.390625 C -12.472656 -18.453125 -12.472656 -19.515625 -12.234375 -20.578125 C -11.992188 -21.648438 -11.566406 -22.671875 -10.953125 -23.640625 C -10.347656 -24.617188 -9.628906 -25.488281 -8.796875 -26.25 C -7.535156 -27.394531 -6.171875 -28.273438 -4.703125 -28.890625 C -3.234375 -29.503906 -1.757812 -29.695312 -0.28125 -29.46875 C 1.1875 -29.25 2.582031 -28.453125 3.90625 -27.078125 L -0.015625 -23.484375 C -0.992188 -24.347656 -1.929688 -24.707031 -2.828125 -24.5625 C -3.734375 -24.414062 -4.6875 -23.882812 -5.6875 -22.96875 C -6.070312 -22.625 -6.421875 -22.191406 -6.734375 -21.671875 C -7.046875 -21.160156 -7.21875 -20.628906 -7.25 -20.078125 C -7.289062 -19.523438 -7.09375 -19.015625 -6.65625 -18.546875 C -6.226562 -18.078125 -5.695312 -17.882812 -5.0625 -17.96875 C -4.4375 -18.050781 -3.722656 -18.289062 -2.921875 -18.6875 C -2.128906 -19.09375 -1.273438 -19.554688 -0.359375 -20.078125 C 0.546875 -20.609375 1.476562 -21.097656 2.4375 -21.546875 C 3.40625 -21.992188 4.390625 -22.300781 5.390625 -22.46875 C 6.390625 -22.644531 7.378906 -22.585938 8.359375 -22.296875 C 9.335938 -22.003906 10.289062 -21.347656 11.21875 -20.328125 C 12.195312 -19.253906 12.816406 -18.140625 13.078125 -16.984375 C 13.347656 -15.835938 13.320312 -14.695312 13 -13.5625 C 12.6875 -12.4375 12.175781 -11.347656 11.46875 -10.296875 C 10.769531 -9.242188 9.953125 -8.285156 9.015625 -7.421875 C 7.660156 -6.191406 6.179688 -5.265625 4.578125 -4.640625 C 2.972656 -4.023438 1.367188 -3.859375 -0.234375 -4.140625 C -1.835938 -4.429688 -3.335938 -5.316406 -4.734375 -6.796875 L -0.625 -10.5625 C 0.4375 -9.519531 1.582031 -9.085938 2.8125 -9.265625 C 4.039062 -9.441406 5.148438 -9.984375 6.140625 -10.890625 Z M 6.140625 -10.890625 "/></g></g></g><g fill="#b4b4b4" fill-opacity="1"><g transform="translate(86.19105, 143.165519)"><g><path d="M -0.34375 -29.578125 L 4.5625 -32.796875 L 18.21875 -11.9375 L 13.3125 -8.71875 L 7.828125 -17.09375 L 0.953125 -12.59375 L 6.4375 -4.21875 L 1.84375 -1.203125 L -11.8125 -22.0625 L -7.21875 -25.078125 L -1.78125 -16.765625 L 5.09375 -21.265625 Z M -0.34375 -29.578125 "/></g></g></g><g fill="#b4b4b4" fill-opacity="1"><g transform="translate(109.03247, 128.460347)"><g><path d="M 10.609375 -15.0625 L 4.15625 -21.921875 L 4.84375 -12.53125 Z M 22.96875 -10.0625 L 17.5625 -7.6875 L 13.90625 -11.578125 L 5.21875 -7.78125 L 5.578125 -2.4375 L 0.171875 -0.078125 L -0.546875 -26.984375 L 3.71875 -28.84375 Z M 22.96875 -10.0625 "/></g></g></g><g fill="#b4b4b4" fill-opacity="1"><g transform="translate(135.361498, 117.428339)"><g><path d="M 5.1875 -10.5625 L 7.453125 -1.953125 L 2.125 -0.5625 L -4.203125 -24.6875 L -0.1875 -25.734375 L 1.125 -26.078125 L 4.84375 -27.046875 C 6.144531 -27.390625 7.441406 -27.382812 8.734375 -27.03125 C 10.023438 -26.675781 11.164062 -26.007812 12.15625 -25.03125 C 13.144531 -24.050781 13.84375 -22.789062 14.25 -21.25 C 14.601562 -19.90625 14.664062 -18.644531 14.4375 -17.46875 C 14.21875 -16.300781 13.78125 -15.28125 13.125 -14.40625 C 12.476562 -13.53125 11.679688 -12.828125 10.734375 -12.296875 L 19.96875 -5.234375 L 13.21875 -3.46875 L 5.21875 -10.578125 Z M 5.078125 -22.640625 L 2.234375 -21.890625 L 4.09375 -14.75 L 6.9375 -15.5 C 7.707031 -15.695312 8.347656 -16.191406 8.859375 -16.984375 C 9.378906 -17.773438 9.488281 -18.753906 9.1875 -19.921875 C 8.894531 -21.035156 8.328125 -21.816406 7.484375 -22.265625 C 6.648438 -22.710938 5.847656 -22.835938 5.078125 -22.640625 Z M 5.078125 -22.640625 "/></g></g></g><g fill="#b4b4b4" fill-opacity="1"><g transform="translate(158.353391, 111.699247)"><g><path d="M 15.953125 -6.90625 L 16.546875 -1.953125 L 2.1875 -0.265625 L -0.75 -25.03125 L 13.609375 -26.71875 L 14.203125 -21.765625 L 5.3125 -20.71875 L 5.890625 -15.796875 L 14.40625 -16.8125 L 15 -11.875 L 6.484375 -10.859375 L 7.0625 -5.859375 Z M 15.953125 -6.90625 "/></g></g></g><g fill="#b4b4b4" fill-opacity="1"><g transform="translate(180.293113, 108.960224)"><g><path d="M 15.546875 -19.5 C 14.222656 -19.5625 12.992188 -19.257812 11.859375 -18.59375 C 10.734375 -17.9375 9.816406 -17.035156 9.109375 -15.890625 C 8.398438 -14.742188 8.015625 -13.460938 7.953125 -12.046875 C 7.890625 -10.660156 8.160156 -9.359375 8.765625 -8.140625 C 9.367188 -6.929688 10.203125 -5.945312 11.265625 -5.1875 C 12.335938 -4.4375 13.535156 -4.03125 14.859375 -3.96875 C 15.660156 -3.9375 16.515625 -4.015625 17.421875 -4.203125 C 18.328125 -4.390625 19.175781 -4.796875 19.96875 -5.421875 C 20.769531 -6.054688 21.421875 -6.984375 21.921875 -8.203125 L 15.578125 -8.484375 L 15.765625 -12.625 L 28.03125 -12.078125 L 27.984375 -11.234375 C 27.910156 -9.472656 27.507812 -7.832031 26.78125 -6.3125 C 26.050781 -4.800781 25.078125 -3.476562 23.859375 -2.34375 C 22.640625 -1.207031 21.242188 -0.347656 19.671875 0.234375 C 18.097656 0.828125 16.421875 1.085938 14.640625 1.015625 C 12.878906 0.929688 11.238281 0.519531 9.71875 -0.21875 C 8.207031 -0.957031 6.890625 -1.9375 5.765625 -3.15625 C 4.640625 -4.382812 3.773438 -5.785156 3.171875 -7.359375 C 2.566406 -8.941406 2.300781 -10.613281 2.375 -12.375 C 2.457031 -14.132812 2.867188 -15.773438 3.609375 -17.296875 C 4.347656 -18.816406 5.332031 -20.132812 6.5625 -21.25 C 7.789062 -22.375 9.191406 -23.234375 10.765625 -23.828125 C 12.347656 -24.429688 14.019531 -24.691406 15.78125 -24.609375 C 17.613281 -24.535156 19.328125 -24.09375 20.921875 -23.28125 C 22.523438 -22.46875 23.90625 -21.378906 25.0625 -20.015625 C 26.226562 -18.648438 27.054688 -17.085938 27.546875 -15.328125 L 21.515625 -15.59375 C 20.960938 -16.945312 20.132812 -17.921875 19.03125 -18.515625 C 17.925781 -19.117188 16.765625 -19.445312 15.546875 -19.5 Z M 15.546875 -19.5 "/></g></g></g><g fill="#b4b4b4" fill-opacity="1"><g transform="translate(212.012635, 110.801083)"><g><path d="M 17.5 -5.78125 L 16.40625 -15.125 L 11.359375 -7.1875 Z M 24.453125 5.59375 L 18.6875 4.28125 L 18.0625 -1.03125 L 8.8125 -3.140625 L 5.9375 1.359375 L 0.1875 0.046875 L 15.609375 -22.015625 L 20.15625 -20.96875 Z M 24.453125 5.59375 "/></g></g></g><g fill="#b4b4b4" fill-opacity="1"><g transform="translate(239.527805, 116.975996)"><g><path d="M 30.421875 13.53125 L 24.890625 11.078125 L 29.203125 -5.84375 L 17.765625 7.90625 L 12.828125 5.703125 L 15.359375 -11.984375 L 5.703125 2.53125 L 0.171875 0.078125 L 14.734375 -20.734375 L 20.6875 -18.09375 L 18.328125 0.015625 L 30.1875 -13.859375 L 36.140625 -11.21875 Z M 30.421875 13.53125 "/></g></g></g><g fill="#b4b4b4" fill-opacity="1"><g transform="translate(272.515033, 132.644825)"><g><path d="M 16.59375 5.203125 L 13.796875 9.328125 L 1.828125 1.234375 L 15.78125 -19.421875 L 27.75 -11.328125 L 24.96875 -7.203125 L 17.546875 -12.21875 L 14.765625 -8.109375 L 21.875 -3.3125 L 19.09375 0.8125 L 11.984375 -3.984375 L 9.171875 0.1875 Z M 16.59375 5.203125 "/></g></g></g><g fill="#b4b4b4" fill-opacity="1"><g transform="translate(290.908785, 145.185078)"><g><path d="M 11.390625 5.140625 C 11.828125 5.535156 12.359375 5.894531 12.984375 6.21875 C 13.617188 6.550781 14.257812 6.726562 14.90625 6.75 C 15.5625 6.769531 16.140625 6.507812 16.640625 5.96875 C 17.097656 5.46875 17.273438 4.882812 17.171875 4.21875 C 17.066406 3.550781 16.789062 2.832031 16.34375 2.0625 C 15.894531 1.289062 15.375 0.476562 14.78125 -0.375 C 14.1875 -1.226562 13.625 -2.125 13.09375 -3.0625 C 12.5625 -4.007812 12.160156 -4.96875 11.890625 -5.9375 C 11.617188 -6.914062 11.578125 -7.894531 11.765625 -8.875 C 11.953125 -9.863281 12.492188 -10.84375 13.390625 -11.8125 C 14.253906 -12.769531 15.203125 -13.410156 16.234375 -13.734375 C 17.265625 -14.066406 18.320312 -14.160156 19.40625 -14.015625 C 20.488281 -13.878906 21.539062 -13.546875 22.5625 -13.015625 C 23.59375 -12.492188 24.523438 -11.851562 25.359375 -11.09375 C 26.617188 -9.945312 27.617188 -8.671875 28.359375 -7.265625 C 29.097656 -5.859375 29.421875 -4.40625 29.328125 -2.90625 C 29.242188 -1.414062 28.570312 0.046875 27.3125 1.484375 L 23.390625 -2.109375 C 24.160156 -3.160156 24.429688 -4.128906 24.203125 -5.015625 C 23.984375 -5.898438 23.375 -6.800781 22.375 -7.71875 C 21.988281 -8.0625 21.523438 -8.363281 20.984375 -8.625 C 20.441406 -8.894531 19.894531 -9.023438 19.34375 -9.015625 C 18.800781 -9.003906 18.3125 -8.765625 17.875 -8.296875 C 17.445312 -7.828125 17.300781 -7.28125 17.4375 -6.65625 C 17.582031 -6.03125 17.882812 -5.335938 18.34375 -4.578125 C 18.8125 -3.828125 19.347656 -3.019531 19.953125 -2.15625 C 20.566406 -1.300781 21.140625 -0.414062 21.671875 0.5 C 22.210938 1.414062 22.613281 2.363281 22.875 3.34375 C 23.132812 4.332031 23.160156 5.328125 22.953125 6.328125 C 22.742188 7.328125 22.175781 8.335938 21.25 9.359375 C 20.269531 10.429688 19.210938 11.148438 18.078125 11.515625 C 16.953125 11.890625 15.8125 11.96875 14.65625 11.75 C 13.507812 11.539062 12.378906 11.128906 11.265625 10.515625 C 10.160156 9.898438 9.140625 9.160156 8.203125 8.296875 C 6.847656 7.066406 5.789062 5.675781 5.03125 4.125 C 4.269531 2.582031 3.960938 1.003906 4.109375 -0.609375 C 4.253906 -2.234375 5.003906 -3.804688 6.359375 -5.328125 L 10.46875 -1.5625 C 9.507812 -0.414062 9.175781 0.757812 9.46875 1.96875 C 9.757812 3.175781 10.398438 4.234375 11.390625 5.140625 Z M 11.390625 5.140625 "/></g></g></g></svg>